<?xml version="1.0" encoding="utf-8"?>
<!-- Generator: Adobe Illustrator 27.0.1, SVG Export Plug-In . SVG Version: 6.00 Build 0)  -->
<svg version="1.1" id="Capa_1" xmlns:serif="http://www.serif.com/"
	 xmlns="http://www.w3.org/2000/svg" xmlns:xlink="http://www.w3.org/1999/xlink" x="0px" y="0px" viewBox="0 0 96.1 24.7"
	 style="enable-background:new 0 0 96.1 24.7;" xml:space="preserve">
<style type="text/css">
	.st0{fill:#EF006F;stroke:#EF006F;stroke-width:0.5;stroke-linejoin:round;stroke-miterlimit:281.9214;}
	.st1{fill:none;stroke:#EF006F;stroke-width:0.5;stroke-linejoin:round;stroke-miterlimit:281.9214;}
</style>
<g transform="matrix(4.45943,0,0,4.45943,-886.941,-883.139)">
	<g>
		<g transform="matrix(0.656572,0,0,0.656572,198.753,205.592)">
			<path class="st0" d="M4.4-5.3v-0.8H3v0.9c0,0.3,0,0.6-0.1,0.7C2.8-4.4,2.6-4.3,2.4-4.3C2.1-4.3,2-4.4,1.8-4.5
				C1.7-4.7,1.7-4.9,1.7-5.2v-4.2c0-0.3,0.1-0.5,0.2-0.7c0.1-0.1,0.3-0.2,0.6-0.2c0.2,0,0.4,0.1,0.5,0.2c0,0.3,0.1,0.5,0.1,0.9v0.5
				h1.4v-0.7c0-0.3-0.1-0.7-0.2-0.9C4.2-10.6,4-10.8,3.9-11c-0.4-0.4-0.8-0.5-1.4-0.5S1.4-11.3,1-10.9C0.5-10.5,0.3-10,0.3-9.4v4.1
				c0,0.7,0.2,1.2,0.6,1.5c0.4,0.4,0.9,0.5,1.5,0.5s1.1-0.2,1.5-0.5C4-3.8,4.2-4,4.3-4.3C4.4-4.6,4.4-4.9,4.4-5.3z"/>
			<path class="st0" d="M9.5-3.3L8.3-6.9C8.6-7.1,8.8-7.3,9-7.6C9.2-8,9.3-8.4,9.3-9c0-0.8-0.2-1.4-0.6-1.8c-0.4-0.4-1-0.6-1.8-0.6
				H5v8h1.4v-3.3h0.7l1,3.3h1.4V-3.3z M7.9-9c0,0.5-0.1,0.8-0.2,1C7.5-7.8,7.2-7.7,6.9-7.7H6.3v-2.5h0.5c0.4,0,0.7,0.1,0.8,0.3
				C7.8-9.7,7.9-9.4,7.9-9z"/>
			<rect x="9.9" y="-11.3" class="st0" width="1.4" height="8"/>
			<path class="st0" d="M15.8-5.2c0-0.4-0.1-0.9-0.3-1.3c-0.1-0.2-0.3-0.4-0.5-0.6s-0.5-0.5-0.8-0.7C14-8,13.9-8.1,13.7-8.2
				c-0.1-0.1-0.3-0.2-0.4-0.4C13.1-8.9,13-9.2,13-9.4s0.1-0.4,0.2-0.6c0.1-0.1,0.3-0.2,0.5-0.2s0.4,0.1,0.6,0.3
				c0.1,0.2,0.2,0.4,0.2,0.6l1.3-0.1c-0.1-0.6-0.3-1.1-0.6-1.4c-0.3-0.3-0.8-0.5-1.3-0.5c-0.7,0-1.2,0.2-1.5,0.5
				c-0.4,0.4-0.6,0.8-0.6,1.5c0,0.5,0.1,1,0.4,1.4c0.1,0.2,0.3,0.4,0.4,0.5c0,0,0.2,0.2,0.4,0.4s0.4,0.4,0.6,0.5
				C13.8-6.3,14-6.2,14.1-6c0.3,0.3,0.4,0.6,0.4,1c0,0.2-0.1,0.4-0.2,0.5c-0.1,0.1-0.3,0.2-0.6,0.2s-0.5-0.1-0.6-0.4
				c-0.1-0.2-0.2-0.5-0.2-0.8l-1.3,0.2c0,0.7,0.2,1.2,0.6,1.6c0.4,0.4,0.8,0.6,1.4,0.6c0.7,0,1.2-0.2,1.6-0.5
				C15.6-4.1,15.8-4.6,15.8-5.2z"/>
		</g>
		<g transform="matrix(0.656572,0,0,0.656572,210.474,205.592)">
			<path class="st1" d="M5.6-11.3H4.3L3.5-6.1l-0.9-5.2H1.4L0.5-6.1l-0.9-5.2h-1.3l1.5,8H1l1-5.4l1,5.4h1.2L5.6-11.3z"/>
			<path class="st1" d="M9.9-3.3v-1.2H7.4v-2.4h1.8V-8H7.4v-2.1h2.3v-1.2H6.1v8C6.1-3.3,9.9-3.3,9.9-3.3z"/>
			<path class="st1" d="M15-5.5c0-0.6-0.1-1.1-0.3-1.4s-0.5-0.5-0.8-0.6c0.2-0.1,0.4-0.2,0.6-0.5c0.2-0.3,0.3-0.7,0.3-1.2
				c0-0.7-0.2-1.2-0.5-1.6c-0.4-0.3-0.9-0.5-1.6-0.5h-2v8h2.2c0.7,0,1.2-0.2,1.6-0.6C14.8-4.3,15-4.8,15-5.5z M13.5-9
				c0,0.3-0.1,0.5-0.3,0.7S12.8-8,12.5-8H12v-2.2h0.5c0.3,0,0.6,0.1,0.7,0.3C13.4-9.7,13.5-9.4,13.5-9z M13.6-5.7
				c0,0.4-0.1,0.8-0.2,1c-0.2,0.2-0.4,0.3-0.8,0.3H12v-2.5h0.5c0.4,0,0.7,0.1,0.9,0.3C13.5-6.4,13.6-6.1,13.6-5.7z"/>
		</g>
	</g>
</g>
</svg>
