<?xml version="1.0" encoding="utf-8"?>
<!-- Generator: Adobe Illustrator 27.0.1, SVG Export Plug-In . SVG Version: 6.00 Build 0)  -->
<svg version="1.1" id="Capa_1" xmlns="http://www.w3.org/2000/svg" xmlns:xlink="http://www.w3.org/1999/xlink" x="0px" y="0px"
	 viewBox="0 0 296 43" style="enable-background:new 0 0 296 43;" xml:space="preserve">
<style type="text/css">
	.st0{fill:#EF006F;}
</style>
<g>
	<path class="st0" d="M13.1,31.6c0,0.9,0.1,1.9,0.4,2.8c0.1,0.2,0.2,0.4,0.3,0.6c0.6,1,1.5,1.4,2.6,1.2c1.1-0.2,2.1-0.7,3.1-1.3
		c1.1-0.7,2.1-1.5,3.1-2.4c2.6-2.4,5.1-4.9,7.5-7.4c1.1-1.1,2.2-2.3,3.3-3.5c0.1-0.1,0.2-0.2,0.3-0.3c0.1-0.1,0.2-0.2,0.4-0.1
		c0.1,0.1,0,0.3-0.1,0.4c-0.2,0.3-0.4,0.5-0.6,0.8c-1.4,1.7-3,3.3-4.5,4.8c-1.8,1.8-3.5,3.6-5.3,5.3c-1.4,1.3-2.8,2.4-4.4,3.4
		c-0.9,0.5-1.8,0.9-2.7,1c-1.4,0.2-2.7-0.4-3.4-1.6c-0.4-0.6-0.6-1.3-0.7-2c-0.3-1.7-0.1-3.3,0.2-5c0.6-3.4,1.9-6.5,3.5-9.5
		c1.5-2.7,3.3-5.2,5.4-7.5c1.4-1.5,2.9-2.8,4.6-3.9c0.9-0.6,2-1.1,3.1-1.3c0.6-0.1,1.2-0.1,1.8,0c1.1,0.3,2,1.3,2.1,2.6
		c0.1,0.6,0,1.3-0.2,1.9c-0.4,1.2-1,2.3-1.7,3.4c-1.4,1.9-2.9,3.7-4.7,5.2c-0.6,0.5-1.3,1-2.1,1.4c-0.3,0.1-0.6,0.3-1,0.2
		c-0.2,0-0.4-0.1-0.5-0.2c-0.1-0.1-0.1-0.3,0.1-0.4c0.1-0.1,0.2-0.2,0.3,0c0.1,0.2,0.2,0.1,0.3,0.1c0.3-0.1,0.6-0.2,0.8-0.4
		c0.7-0.4,1.4-0.9,1.9-1.5c1.7-1.6,3.2-3.3,4.5-5.2c0.6-1,1.1-2,1.4-3.2c0.1-0.5,0.1-0.9,0-1.4C32,7.2,31,6.5,29.8,6.7
		c-1,0.1-1.9,0.6-2.8,1.1c-1.3,0.8-2.4,1.7-3.5,2.7c-2.8,2.6-5,5.7-6.8,9.1c-0.9,1.8-1.7,3.6-2.4,5.5c-0.6,1.8-1,3.6-1.2,5.5
		C13.1,31,13.1,31.3,13.1,31.6z"/>
	<path class="st0" d="M33.6,23.2c0.3-0.3,0.5-0.6,0.8-1c0.9-1.2,1.9-2.3,3.1-3.3c0.2-0.2,0.5-0.4,0.8-0.6c0.4-0.3,0.8-0.1,0.8,0.5
		c0,0.4-0.1,0.7-0.1,1.1c0,0.3,0.1,0.6,0.3,0.9c0.1,0.3,0.3,0.4,0.6,0.4c0.1,0,0.2,0,0.2,0.1c0,0.1-0.1,0.2-0.2,0.2
		c-0.3,0.1-0.5,0-0.8-0.2c-0.5-0.5-0.8-1.2-0.7-1.9c0-0.1,0.1-0.3,0-0.4c-0.2,0-0.3,0.1-0.4,0.3c-1.1,0.8-1.9,1.7-2.7,2.8
		c-0.6,0.8-1.3,1.6-1.9,2.4c-0.1,0.1-0.2,0.3-0.3,0.4c-0.1,0.1-0.3,0.1-0.5,0c-0.1-0.1-0.2-0.3-0.2-0.4c0.1-0.4,0.2-0.8,0.4-1.2
		c0.2-0.6,0.5-1.1,0.9-1.7c0.1-0.1,0.1-0.1,0.1-0.2c0.1-0.1,0.3-0.1,0.4,0c0.1,0.1,0.2,0.2,0.2,0.4c0,0.1-0.1,0.3-0.1,0.4
		C33.9,22.3,33.7,22.7,33.6,23.2C33.5,23.1,33.6,23.1,33.6,23.2z"/>
	<path class="st0" d="M39.9,34.6c-0.1,0-0.2,0-0.3,0c-0.6-0.1-1-0.5-1-1.1c0-0.4,0.1-0.8,0.3-1.2c0.4-0.9,1.1-1.6,1.7-2.4
		c1.1-1.1,2.2-2.1,3.4-3.2c0.8-0.7,1.7-1.4,2.5-2.2c0.2-0.2,0.2-0.2,0.1-0.4c-0.4-0.5-0.9-1.1-1.3-1.6c-0.1-0.1-0.2-0.1-0.3,0
		c-0.3,0.2-0.6,0.4-0.9,0.7c-0.9,0.7-1.9,1.5-2.9,2.1c-0.4,0.3-0.8,0.5-1.3,0.6c-0.8,0.2-1.4-0.3-1.4-1.1c0-0.3,0.1-0.6,0.1-0.9
		c0.2-0.9,0.6-1.7,1.1-2.5c0.1-0.1,0.2-0.3,0.3-0.4c0.2-0.2,0.4-0.2,0.6-0.1c0.1,0.1,0.2,0.3,0,0.5c-0.4,0.8-0.8,1.6-1.1,2.5
		c-0.1,0.3-0.2,0.6-0.2,0.9c0,0.4,0.1,0.5,0.5,0.4c0.4-0.1,0.8-0.4,1.2-0.6c1.2-0.8,2.4-1.7,3.6-2.6c0.2-0.1,0.3-0.3,0.3-0.6
		c0-0.2,0.1-0.4,0.2-0.6c0.3-0.6,0.8-1,1.4-1.2c0.2-0.1,0.4-0.1,0.5-0.1c0.4,0.1,0.5,0.4,0.4,0.7c-0.1,0.2-0.2,0.4-0.3,0.5
		c-0.3,0.3-0.6,0.6-1,0.9c-0.3,0.2-0.3,0.3-0.1,0.6c0.4,0.5,0.8,0.9,1.2,1.4c0.1,0.1,0.3,0.1,0.4,0c0.4-0.3,0.7-0.6,1.1-0.9
		c0.6-0.5,1.2-1,1.9-1.5c0.1-0.1,0.1-0.1,0.2-0.1c0.1,0,0.1,0,0.2,0.1c0.1,0.1,0.1,0.1,0,0.2c-0.1,0.1-0.1,0.2-0.2,0.3
		c-0.9,0.8-1.8,1.5-2.7,2.3c-0.3,0.2-0.3,0.3-0.1,0.6c0.6,1.1,0.6,2.3,0.2,3.5c-0.4,1-1,1.9-1.7,2.7c-1.4,1.5-3,2.7-4.8,3.5
		C41,34.5,40.5,34.7,39.9,34.6z M47.5,26.5c0-0.1,0-0.2,0-0.4c0-0.2-0.1-0.4-0.1-0.6c-0.3-0.8-0.3-0.6-0.8-0.2
		c-0.8,0.7-1.6,1.4-2.3,2.1c-1.2,1.1-2.4,2.2-3.5,3.5c-0.4,0.5-0.8,0.9-1.1,1.5c-0.2,0.3-0.3,0.6-0.3,1c0,0.5,0.1,0.6,0.6,0.7
		c0.4,0,0.8-0.1,1.1-0.2c1.1-0.4,2.1-1.1,3-1.8c1.2-1,2.2-2.2,2.9-3.6C47.3,27.8,47.5,27.2,47.5,26.5z M43.4,16.4
		c0,0.2-0.1,0.4-0.1,0.7c0,0.1-0.2,0.2-0.3,0.1c-0.2,0-0.3,0.1-0.4,0.2c-0.4,0.5-0.6,1-0.9,1.6c-0.1,0.1-0.1,0.2,0,0.4
		c0.1,0.2,0.1,0.3-0.1,0.4c-0.2,0.1-0.5,0-0.6-0.2c-0.1-0.2-0.1-0.3,0-0.5c0.3-1.1,0.8-2.1,1.5-2.9c0.1-0.1,0.2-0.2,0.3-0.3
		C43.1,15.7,43.4,15.9,43.4,16.4z"/>
	<path class="st0" d="M55.5,15.6c0.5,0,0.9-0.1,1.4-0.1c1.2-0.2,2.5-0.3,3.7-0.4c0.6-0.1,1.1-0.1,1.7-0.1c0.7-0.1,1.5,0,2.2,0.1
		c0.2,0,0.4,0.1,0.6,0.2c0.1,0.1,0.3,0.2,0.4,0.3c0,0.1,0,0.2-0.1,0.3c-0.1,0.1-0.1,0-0.2-0.1c-0.4-0.4-0.8-0.3-1.2-0.4
		c-1-0.1-2,0-3,0.1c-1.1,0.1-2.2,0.2-3.3,0.4c-0.8,0.1-1.6,0.2-2.4,0.3c-0.3,0.1-0.5,0.1-0.6,0.4c-1.3,1.9-2.6,3.9-3.8,5.9
		c-0.9,1.5-1.6,3.1-2.2,4.7c-0.1,0.3-0.1,0.6-0.2,0.9c0,0.2,0,0.4,0,0.5c0,0.4,0.2,0.4,0.5,0.3c0.3-0.1,0.5-0.2,0.7-0.4
		c0.5-0.4,1-0.8,1.4-1.2c1.7-1.6,3.4-3.3,5.1-5c0.3-0.3,0.7-0.6,1-1c0.1-0.1,0.1-0.1,0.2-0.2c0.1,0,0.2,0,0.2,0c0.1,0.1,0,0.1,0,0.2
		c-0.1,0.1-0.1,0.1-0.1,0.1c-1.9,2-3.8,3.9-5.7,5.8c-0.6,0.6-1.1,1.1-1.7,1.6c-0.3,0.2-0.6,0.4-0.9,0.5c-0.8,0.3-1.4,0-1.5-0.9
		c-0.1-0.6,0-1.2,0.2-1.8c0.4-1.5,1.1-3,1.8-4.3c1-1.9,2.2-3.7,3.4-5.5c0.1-0.1,0.3-0.2,0.2-0.4c-0.1-0.1-0.3,0-0.4,0
		c-1.4,0.3-2.8,0.6-4.1,0.9c-0.2,0-0.4,0.1-0.5,0.3c-0.1,0.1-0.1,0.1-0.2,0.1c-0.3,0-0.5,0.1-0.8,0.1c-0.1,0-0.3,0-0.4-0.2
		c-0.1-0.2,0.1-0.3,0.2-0.3c0.4-0.2,0.7-0.3,1.1-0.4c1.5-0.5,3.1-0.9,4.6-1.1c0.3-0.1,0.5-0.1,0.8-0.1c0.3,0,0.5-0.2,0.6-0.4
		c0.9-1.2,1.8-2.3,2.7-3.4c0.2-0.3,0.5-0.6,0.8-0.8c0.1-0.1,0.3-0.2,0.4-0.3c0.1-0.1,0.3,0,0.4,0.1c0.1,0.1,0.1,0.3,0,0.4
		c-0.1,0.2-0.3,0.4-0.5,0.6c-0.3,0.3-0.5,0.6-0.8,0.9c-0.6,0.7-1.1,1.5-1.7,2.2C55.6,15.4,55.5,15.4,55.5,15.6z"/>
	<path class="st0" d="M56,24.6c0-0.5,0.1-1,0.3-1.5c0.3-0.6,0.6-1.3,0.9-1.9c0.2-0.3,0.4-0.4,0.6-0.3c0.2,0.1,0.2,0.3,0,0.6
		c-0.3,0.6-0.6,1.1-0.8,1.7c-0.2,0.4-0.4,0.9-0.4,1.3c0,0.2,0,0.4,0,0.6c0.1,0.3,0.2,0.3,0.5,0.3c0.3-0.1,0.6-0.3,0.9-0.5
		c0.6-0.5,1.2-1,1.8-1.5c0.8-0.7,1.5-1.4,2.4-2.1c0.1-0.1,0.2-0.1,0.3-0.2c0.1,0,0.1,0,0.1,0c0,0.1,0,0.1,0,0.1
		c0,0.1-0.1,0.1-0.1,0.1c-1.4,1.2-2.6,2.4-4,3.6c-0.2,0.2-0.5,0.4-0.8,0.6c-0.2,0.1-0.4,0.2-0.6,0.2c-0.4,0.1-0.7-0.1-0.9-0.5
		C56.1,25.2,56.1,24.9,56,24.6z M58.3,19.5c0-0.1,0.1-0.2,0.1-0.4c0.2-0.7,0.6-1.4,0.9-2c0.1-0.2,0.3-0.4,0.4-0.5
		c0.1-0.1,0.3-0.1,0.5,0c0.1,0.1,0.2,0.3,0.1,0.4c-0.2,0.4-0.4,0.9-0.8,1.1c-0.2,0.1-0.3,0.3-0.4,0.5c-0.1,0.3-0.4,0.6-0.4,1
		c0,0.1-0.1,0.2-0.3,0.2C58.4,20,58.3,19.8,58.3,19.5z"/>
	<path class="st0" d="M64.6,21.9c-0.3,0.3-0.6,0.6-1,0.9c-0.3,0.2-0.5,0.5-0.8,0.7c-0.1,0.1-0.3,0.2-0.5,0.3
		c-0.5,0.2-0.9-0.1-0.9-0.6c0-0.2,0.1-0.4,0.2-0.5c0.4-0.9,1.1-1.7,1.9-2.3c0.2-0.1,0.4-0.3,0.7-0.3c0.3-0.1,0.6-0.1,0.9,0.2
		c0.1,0.1,0.1,0.1,0.3,0.1c0.4,0,0.5,0.2,0.4,0.6c-0.1,0.2-0.2,0.4-0.3,0.6c-0.5,0.9-0.9,1.9-1.2,2.9c-0.1,0.5-0.2,1-0.2,1.5
		c0,0.5,0.2,0.6,0.7,0.4c0.5-0.2,0.9-0.6,1.2-0.9c1.3-1.2,2.6-2.5,3.9-3.8c0.1-0.1,0.1-0.1,0.2-0.2c0.1-0.1,0.2-0.1,0.3,0
		c0.1,0.1,0,0.2,0,0.2c0,0.1-0.1,0.1-0.1,0.1c-1.6,1.5-3.1,3.1-4.7,4.6c-0.2,0.2-0.5,0.4-0.7,0.5c-0.6,0.3-1.1,0-1.3-0.6
		c-0.1-0.4,0-0.9,0.1-1.3c0.1-0.9,0.5-1.7,0.8-2.5C64.5,22.1,64.6,22,64.6,21.9z M62.2,23.1c0.2-0.1,0.3-0.2,0.4-0.3
		c0.7-0.6,1.4-1.2,2-1.9c0,0,0.1-0.1,0.1-0.1c0.1,0,0.1-0.1,0.1-0.1c-0.1-0.1-0.1-0.1-0.2-0.1c-0.3,0.1-0.5,0.2-0.7,0.4
		c-0.6,0.5-1.1,1.1-1.6,1.7C62.3,22.8,62.2,22.9,62.2,23.1z"/>
	<path class="st0" d="M70.1,23c0.5-0.7,1.1-1.5,1.7-2.1c0.5-0.5,1-1,1.6-1.4c0.1-0.1,0.3-0.2,0.4-0.2c0.4-0.1,0.7,0.2,0.6,0.6
		c0,0.2-0.1,0.4-0.2,0.6c-0.3,0.5-0.6,1.1-0.9,1.6c-0.1,0.3-0.3,0.6-0.4,0.9c0,0.1-0.1,0.2-0.1,0.4c0,0.2,0.1,0.3,0.4,0.3
		c0.2,0,0.4-0.1,0.6-0.2c0.6-0.3,1.2-0.7,1.9-1.1c0.6-0.3,1.1-0.7,1.7-1c0.1-0.1,0.3-0.2,0.4,0c0.1,0.1-0.1,0.2-0.2,0.3
		c-0.8,0.6-1.6,1-2.4,1.6c-0.3,0.2-0.6,0.4-1,0.6c-0.3,0.1-0.5,0.2-0.8,0.3c-0.7,0.2-1.3-0.4-1.2-1.1c0-0.4,0.1-0.8,0.3-1.1
		c0.3-0.5,0.5-1,0.8-1.5c0-0.1,0.1-0.1,0.1-0.2c-0.2,0-0.4,0.1-0.5,0.3c-0.6,0.6-1.3,1.2-1.8,1.9c-0.8,1-1.5,2-2.1,3.1
		c-0.1,0.2-0.2,0.4-0.4,0.6c-0.1,0.2-0.3,0.2-0.5,0.1c-0.2-0.1-0.2-0.3-0.1-0.4c0.2-0.8,0.4-1.6,0.8-2.4c0.3-0.7,0.7-1.4,1.1-2.1
		c0-0.1,0.1-0.1,0.1-0.1c0.1-0.2,0.3-0.2,0.5-0.1c0.2,0.1,0.3,0.3,0.2,0.5c-0.1,0.1-0.1,0.2-0.2,0.4C70.4,22.3,70.2,22.6,70.1,23
		C70.1,23,70.1,23,70.1,23z"/>
	<path class="st0" d="M94.6,21.3c0.6-0.1,1.2-0.2,1.8-0.3c1.3-0.1,2.6-0.2,3.9,0.1c0.7,0.1,1.4,0.4,1.9,0.9c0.2,0.1,0.4,0.2,0.6,0.1
		c1.3-0.3,2.5-0.6,3.8-0.8c0.2,0,0.4-0.1,0.5-0.1c0.1,0,0.2,0,0.2,0.1c0,0.1-0.1,0.2-0.1,0.2c-0.1,0-0.3,0.1-0.5,0.1
		c-1.1,0.2-2.3,0.5-3.4,0.8c-0.1,0-0.2,0-0.2,0.1c-0.1,0-0.1,0.1-0.1,0.2c0,0,0.1,0.1,0.1,0.1c0.7,1,0.9,2.1,0.6,3.3
		c-0.3,1.4-0.9,2.6-1.7,3.7c-2,2.7-4.6,4.6-7.7,5.7c-1.6,0.6-3.3,1-5.1,1.1c-1.1,0.1-2.3,0.1-3.4-0.4c-0.7-0.3-1.4-0.7-1.8-1.4
		c-0.5-0.7-0.7-1.5-0.6-2.4c0.2-1.2,0.8-2.2,1.6-3.1c0.4-0.5,1-1,1.5-1.5c0.2-0.1,0.3-0.4,0.4-0.6c0.6-1.2,1.1-2.4,1.6-3.6
		c1-2.2,2.1-4.3,3.3-6.4c1.2-2.3,2.5-4.5,3.7-6.8c0.1-0.2,0.2-0.4,0.2-0.6c-0.1-0.1-0.1-0.1-0.1,0c-0.6,0.2-1.1,0.6-1.5,1
		c-0.1,0.1-0.2,0.1-0.1,0.2c0.1,0.2-0.1,0.3-0.2,0.4c-0.1,0-0.1,0.1-0.2,0.1c-0.1,0.1-0.3,0.1-0.4-0.1c-0.1-0.1-0.1-0.2,0-0.4
		c0.1-0.2,0.2-0.4,0.4-0.5c0.6-0.6,1.2-1.1,1.9-1.4c0.1-0.1,0.3-0.1,0.5-0.1c0.4,0,0.7,0.2,0.7,0.6c0,0.3-0.1,0.5-0.1,0.7
		c-0.4,0.9-0.8,1.6-1.2,2.4c-1.4,2.6-2.7,5.1-4,7.6c-0.1,0.1-0.1,0.2-0.2,0.4c0.2-0.1,0.2-0.2,0.3-0.4c1.7-2.4,3.4-4.8,5.3-7
		c1.9-2.3,4.1-4.3,6.6-6c1.2-0.8,2.4-1.5,3.7-2.1c0.4-0.1,0.8-0.3,1.2-0.3c0.6,0,1,0.4,1,1.1c0,0.4-0.1,0.7-0.3,1
		c-0.4,0.9-1,1.6-1.6,2.4c-1.4,1.7-3.1,3.3-4.7,4.8c-2.4,2.2-4.9,4.3-7.5,6.3C94.9,21,94.7,21.1,94.6,21.3
		C94.6,21.3,94.6,21.3,94.6,21.3z M88.2,36.2c0.2,0,0.3,0,0.5,0c0.3,0,0.6-0.1,0.8-0.1c2.1-0.3,4.1-0.8,5.9-1.7
		c2.8-1.4,4.9-3.4,6.5-6.1c0.5-0.8,0.8-1.7,0.9-2.6c0.1-0.9,0-1.8-0.6-2.6c-0.1-0.2-0.3-0.3-0.5-0.2c-0.4,0.1-0.8,0.2-1.2,0.3
		c-2.6,0.7-5.2,1.4-7.8,2.3c-0.7,0.3-1.4,0.6-2.1,0.9c-0.7,0.3-1.4,0.7-2,1c-0.6,0.4-1.2,0.9-1.8,1.3c-0.4,0.3-0.7,0.6-1,0.9
		c-0.6,0.7-1.2,1.5-1.5,2.4C84,33,84,34,84.7,34.8c0.4,0.5,0.8,0.8,1.4,1C86.7,36.1,87.5,36.2,88.2,36.2z M101.5,22.4
		c-0.3-0.2-0.6-0.4-0.8-0.4c-0.7-0.3-1.5-0.4-2.3-0.4c-1.1,0-2.2,0.1-3.3,0.4c-1.4,0.3-2.7,0.8-3.9,1.6c-0.2,0.2-0.4,0.3-0.6,0.4
		c-0.1,0.1-0.3,0.1-0.4,0.1c-0.2,0-0.4,0.1-0.5,0.3c-0.4,0.6-0.8,1.3-1.2,1.9c-0.1,0.1-0.2,0.3-0.2,0.5c0.1,0,0.1,0,0.2-0.1
		c1.4-0.9,3-1.5,4.6-2c2.6-0.8,5.3-1.5,7.9-2.2C101.1,22.6,101.3,22.6,101.5,22.4z M90.6,22.9C90.7,22.9,90.7,22.9,90.6,22.9
		c0.1,0,0.2,0,0.2-0.1c1.5-1.1,3-2.1,4.4-3.3c2.4-1.9,4.8-3.9,7-6c1.5-1.4,3.1-2.9,4.4-4.5c0.6-0.7,1.1-1.4,1.5-2.2
		c0.1-0.2,0.2-0.4,0.2-0.6c0-0.3-0.1-0.4-0.4-0.4c-0.5,0.1-1,0.3-1.4,0.5c-1.3,0.6-2.4,1.4-3.6,2.2c-2.5,1.8-4.6,4-6.6,6.4
		c-1.9,2.3-3.6,4.7-5.3,7.2C90.9,22.4,90.8,22.7,90.6,22.9z"/>
	<path class="st0" d="M109.1,21.9c-0.3,0.3-0.6,0.6-1,0.9c-0.3,0.2-0.5,0.5-0.8,0.7c-0.1,0.1-0.3,0.2-0.5,0.3
		c-0.5,0.2-0.9-0.1-0.9-0.6c0-0.2,0.1-0.4,0.2-0.5c0.4-0.9,1.1-1.7,1.9-2.3c0.2-0.1,0.4-0.3,0.7-0.3c0.3-0.1,0.6-0.1,0.9,0.2
		c0.1,0.1,0.1,0.1,0.3,0.1c0.4,0,0.5,0.2,0.4,0.6c-0.1,0.2-0.2,0.4-0.3,0.6c-0.5,0.9-0.9,1.9-1.2,2.9c-0.1,0.5-0.2,1-0.2,1.5
		c0,0.5,0.2,0.6,0.7,0.4c0.5-0.2,0.9-0.6,1.2-0.9c1.3-1.2,2.6-2.5,3.9-3.8c0.1-0.1,0.1-0.1,0.2-0.2c0.1-0.1,0.2-0.1,0.3,0
		c0.1,0.1,0,0.2,0,0.2c0,0.1-0.1,0.1-0.1,0.1c-1.6,1.5-3.1,3.1-4.7,4.6c-0.2,0.2-0.5,0.4-0.7,0.5c-0.6,0.3-1.1,0-1.3-0.6
		c-0.1-0.4,0-0.9,0.1-1.3c0.1-0.9,0.5-1.7,0.8-2.5C109,22.1,109.1,22,109.1,21.9z M106.7,23.1c0.2-0.1,0.3-0.2,0.4-0.3
		c0.7-0.6,1.4-1.2,2-1.9c0,0,0.1-0.1,0.1-0.1c0.1,0,0.1-0.1,0.1-0.1c-0.1-0.1-0.1-0.1-0.2-0.1c-0.3,0.1-0.5,0.2-0.7,0.4
		c-0.6,0.5-1.1,1.1-1.6,1.7C106.8,22.8,106.7,22.9,106.7,23.1z"/>
	<path class="st0" d="M115.9,21.9c-0.2,0-0.4,0-0.5-0.1c-0.2,0-0.4,0-0.5,0.2c-0.4,0.6-0.8,1.2-0.9,1.9c0,0.2,0,0.4,0,0.5
		c0.1,0.6,0.5,0.9,1.1,1c0.3,0,0.7,0,1-0.1c0.6-0.2,1.2-0.5,1.8-0.9c1.3-0.9,2.6-1.8,3.9-2.8c0.1-0.1,0.2-0.2,0.4-0.3
		c0.1-0.1,0.2-0.1,0.3,0c0.1,0.1,0,0.1,0,0.2c-0.1,0.1-0.2,0.2-0.4,0.3c-1.6,1.2-3.1,2.4-4.8,3.4c-0.5,0.3-1,0.5-1.6,0.6
		c-0.3,0.1-0.6,0.1-0.9,0c-0.9-0.2-1.5-1-1.4-1.9c0-0.6,0.3-1.1,0.6-1.6c0.6-0.9,1.2-1.8,2.1-2.4c0.5-0.3,1.1-0.6,1.7-0.6
		c0.1,0,0.2,0,0.3,0c0.5,0.1,0.7,0.6,0.5,1c-0.1,0.2-0.1,0.3-0.3,0.5C117.7,21.5,116.9,21.8,115.9,21.9z M115.5,21.3
		c0.9,0.1,1.7-0.2,2.3-0.9c0.1-0.1,0.2-0.3,0.1-0.5c-0.1-0.1-0.3-0.1-0.5,0c-0.6,0.2-1.1,0.5-1.5,0.9
		C115.8,20.9,115.7,21.1,115.5,21.3z"/>
	<path class="st0" d="M122.6,22.1c-0.1-0.2-0.3-0.2-0.4-0.3c-0.4-0.3-0.4-0.7-0.1-1c0.1-0.1,0.3-0.3,0.5-0.3
		c0.6-0.3,1.2-0.5,1.9-0.5c0.3,0,0.6,0,0.8,0.1c0.4,0.1,0.4,0.5,0.2,0.8c-0.1,0.1-0.3,0.3-0.4,0.4c-0.2,0.1-0.4,0.3-0.6,0.4
		c0.1,0.1,0.2,0.1,0.3,0.1c0.9,0.1,1.6,0.4,2,1.2c0.1,0.2,0.1,0.2,0.4,0.1c0.7-0.6,1.4-1.1,2.1-1.7c0.1-0.1,0.1-0.1,0.2-0.2
		c0.1,0,0.2,0,0.2,0c0.1,0.1,0,0.2,0,0.2c-0.1,0.1-0.2,0.2-0.4,0.4c-0.7,0.5-1.4,1.1-2,1.7c-0.2,0.1-0.3,0.3-0.2,0.6
		c0.1,0.8,0,1.6-0.2,2.4c-0.7,2.4-1.9,4.6-3.5,6.4c-1.3,1.5-2.8,2.7-4.5,3.5c-0.5,0.2-1,0.4-1.6,0.5c-0.1,0-0.1,0-0.2,0.1
		c-0.8,0.1-1.3-0.4-1.1-1.2c0.1-0.7,0.5-1.3,0.9-1.9c0.6-1,1.4-1.9,2.1-2.8c1.2-1.4,2.5-2.8,3.8-4.1c1.1-1,2.2-2,3.3-2.9
		c0.4-0.4,0.4-0.5,0.1-1c-0.4-0.5-0.9-0.7-1.6-0.7c-0.6,0-1.2,0.1-1.8,0.3c-0.1,0-0.2,0.1-0.3,0.1c-0.1,0-0.3,0-0.4-0.2
		c-0.1-0.1,0-0.2,0.1-0.3C122.4,22.2,122.5,22.1,122.6,22.1z M126.5,24.3c-0.1,0-0.2,0.1-0.3,0.1c-0.9,0.8-1.7,1.6-2.6,2.4
		c-1.4,1.4-2.9,2.9-4.2,4.4c-0.9,1-1.7,2.1-2.4,3.3c-0.2,0.4-0.4,0.7-0.5,1.1c-0.1,0.2-0.1,0.4,0,0.6c0.2,0.2,0.4,0.1,0.6,0
		c0.4-0.1,0.7-0.2,1.1-0.4c1.3-0.6,2.4-1.5,3.5-2.5c1.9-1.8,3.2-3.9,4.1-6.3C126.3,26.2,126.5,25.3,126.5,24.3z M125.1,20.6
		c-0.1,0-0.1-0.1-0.1-0.1c-0.8-0.1-1.5,0.2-2.2,0.6c0,0-0.1,0.1-0.1,0.1c-0.1,0.1-0.1,0.1,0,0.2c0.1,0.2,0.5,0.4,0.7,0.3
		C123.9,21.4,124.5,21.1,125.1,20.6z"/>
	<path class="st0" d="M131.6,21.9c-0.3,0.3-0.6,0.6-1,0.9c-0.3,0.2-0.5,0.5-0.8,0.7c-0.1,0.1-0.3,0.2-0.5,0.3
		c-0.5,0.2-0.9-0.1-0.9-0.6c0-0.2,0.1-0.4,0.2-0.5c0.4-0.9,1.1-1.7,1.9-2.3c0.2-0.1,0.4-0.3,0.7-0.3c0.3-0.1,0.6-0.1,0.9,0.2
		c0.1,0.1,0.1,0.1,0.3,0.1c0.4,0,0.5,0.2,0.4,0.6c-0.1,0.2-0.2,0.4-0.3,0.6c-0.5,0.9-0.9,1.9-1.2,2.9c-0.1,0.5-0.2,1-0.2,1.5
		c0,0.5,0.2,0.6,0.7,0.4c0.5-0.2,0.9-0.6,1.2-0.9c1.3-1.2,2.6-2.5,3.9-3.8c0.1-0.1,0.1-0.1,0.2-0.2c0.1-0.1,0.2-0.1,0.3,0
		c0.1,0.1,0,0.2,0,0.2c0,0.1-0.1,0.1-0.1,0.1c-1.6,1.5-3.1,3.1-4.7,4.6c-0.2,0.2-0.5,0.4-0.7,0.5c-0.6,0.3-1.1,0-1.3-0.6
		c-0.1-0.4,0-0.9,0.1-1.3c0.1-0.9,0.5-1.7,0.8-2.5C131.6,22.1,131.7,22,131.6,21.9z M129.2,23.1c0.2-0.1,0.3-0.2,0.4-0.3
		c0.7-0.6,1.4-1.2,2-1.9c0,0,0.1-0.1,0.1-0.1c0.1,0,0.1-0.1,0.1-0.1c-0.1-0.1-0.1-0.1-0.2-0.1c-0.3,0.1-0.5,0.2-0.7,0.4
		c-0.6,0.5-1.1,1.1-1.6,1.7C129.3,22.8,129.2,22.9,129.2,23.1z"/>
</g>
<g>
	<path class="st0" d="M26.1,34.2c0.2,0.2,0.6,0.3,0.9,0.4c1.5,0.4,2.9,0.6,4.4,0.9c1.7,0.2,3.4,0.5,4.9,1.2c0.3,0.2,0.6,0.3,0.9,0.5
		c0.1,0.1,0.2,0.2,0.1,0.3c-0.1,0.2-0.2,0.1-0.3,0.1c-0.5-0.2-1-0.4-1.5-0.6c-1.3-0.4-2.6-0.5-3.9-0.7c-1.7-0.2-3.4-0.4-5.1-0.7
		c-0.4-0.1-0.9-0.2-1.3-0.5c-0.7-0.4-0.7-1.2-0.2-1.8c0.3-0.3,0.7-0.5,1-0.7c1.4-0.7,2.9-1.1,4.4-1.5c2.9-0.7,5.8-1.3,8.7-1.7
		c2-0.3,4-0.6,6-0.8c1.6-0.2,3.1-0.4,4.7-0.5c1.9-0.1,3.8-0.3,5.7-0.5c1.2-0.1,2.5-0.2,3.7-0.2c1.8-0.2,3.7-0.3,5.6-0.4
		c0.6-0.1,1.3-0.1,1.9-0.1c1.6-0.1,3.3-0.2,4.9-0.3c1.7-0.1,3.4-0.2,5.1-0.3c0.9,0,1.8,0,2.7-0.1c1.5-0.1,2.9-0.1,4.4-0.2
		c2.4-0.1,4.9-0.2,7.3-0.2c1,0,2,0,2.9-0.1c6.1-0.2,12.3-0.1,18.3-0.1c2.2,0,4.3,0.1,6.4,0.2c1.5,0.1,2.9,0.2,4.3,0.3
		c2.7,0.3,5.4,0.5,8,1.5c0.7,0.3,1.4,0.7,2,1.3c0.1,0.2,0.3,0.4,0.4,0.5c0.1,0.2,0.1,0.3,0,0.5c-0.1,0.2-0.3,0.2-0.5,0.1
		c-0.1,0-0.1-0.1-0.2-0.2c-0.5-0.7-1.1-1-1.9-1.3c-1.4-0.5-2.9-0.7-4.4-0.9c-2.4-0.3-4.7-0.5-7-0.6c-3.7-0.2-7.4-0.2-11.1-0.2
		c-3,0-5.9,0-8.9,0c-2.7,0-5.5,0.1-8.3,0.2c-1.9,0.1-3.8,0.2-5.7,0.2c-1.9,0.1-3.8,0.2-5.7,0.3c-1,0-2,0.1-3.1,0.1
		c-1.6,0.1-3.3,0.2-5,0.3c-0.7,0-1.3,0-2,0.1c-2,0.1-3.9,0.2-5.9,0.4c-2.2,0.2-4.3,0.3-6.5,0.5c-1.5,0.1-3,0.2-4.5,0.4
		c-1.6,0.2-3.3,0.3-4.9,0.5c-1.6,0.2-3.2,0.4-4.8,0.5c-2.3,0.3-4.6,0.6-7,1c-2.3,0.4-4.5,0.8-6.7,1.5c-1,0.3-2,0.6-3,1.1
		C26.4,33.8,26.2,33.9,26.1,34.2z"/>
</g>
</svg>
